<svg width="36" height="36" viewBox="0 0 36 36" fill="none" xmlns="http://www.w3.org/2000/svg">
<path d="M2.25 8.22656H5.34375V20.0391L31.3522 20.0391C32.0343 20.0405 32.359 20.1009 32.6236 20.2142L32.6429 20.2226C32.6524 20.2269 32.662 20.2312 32.6714 20.2355L32.6903 20.2444C32.7122 20.2549 32.7338 20.2657 32.7554 20.2769L32.7739 20.2866C32.777 20.2882 32.78 20.2899 32.7831 20.2915C33.0911 20.4562 33.3328 20.6979 33.4976 21.0059L33.5025 21.0152L33.5122 21.0337C33.5234 21.0553 33.5342 21.0769 33.5447 21.0988L33.5535 21.1176C33.5579 21.1271 33.5622 21.1366 33.5664 21.1462L33.5748 21.1655C33.6896 21.4333 33.75 21.7627 33.75 22.4619V27.9141H30.6562V25.6641H5.34375V27.9141H2.25V8.22656Z" fill="#74838F"/>
<path d="M14.625 15.1523C14.625 13.1387 12.9824 11.4961 10.9688 11.4961C8.95507 11.4961 7.3125 13.1387 7.3125 15.1523C7.3125 17.166 8.95507 18.8086 10.9688 18.8086C12.9824 18.8086 14.625 17.166 14.625 15.1523Z" fill="#74838F"/>
<path fill-rule="evenodd" clip-rule="evenodd" d="M17.01 11.4961H26.4375C30.4761 11.4961 33.75 14.77 33.75 18.8086H15.75V12.7561C15.75 12.0602 16.3141 11.4961 17.01 11.4961Z" fill="#74838F"/>
</svg>
