<svg width="36" height="36" viewBox="0 0 36 36" fill="none" xmlns="http://www.w3.org/2000/svg">
<path fill-rule="evenodd" clip-rule="evenodd" d="M3.97266 6.36328C3.97266 5.04298 5.04297 3.97266 6.36328 3.97266H29.6367C30.957 3.97266 32.0273 5.04297 32.0273 6.36328V29.6367C32.0273 30.957 30.957 32.0273 29.6367 32.0273H6.36328C5.04298 32.0273 3.97266 30.957 3.97266 29.6367V6.36328ZM6.50391 6.50391V29.4961H29.4961V6.50391H6.50391Z" fill="#74838F"/>
<path d="M9.98438 10.4062C9.98438 9.78493 10.4881 9.28125 11.1094 9.28125H24.8906C25.5119 9.28125 26.0156 9.78493 26.0156 10.4062V13.4297C26.0156 14.051 25.5119 14.5547 24.8906 14.5547H11.1094C10.4881 14.5547 9.98438 14.051 9.98438 13.4297V10.4062Z" fill="#74838F"/>
<path d="M9.98438 18.3516C9.98438 17.7302 10.4881 17.2266 11.1094 17.2266H13.0781C13.6994 17.2266 14.2031 17.7302 14.2031 18.3516V20.3203C14.2031 20.9416 13.6994 21.4453 13.0781 21.4453H11.1094C10.4881 21.4453 9.98438 20.9416 9.98438 20.3203V18.3516Z" fill="#74838F"/>
<path d="M9.98438 23.6953C9.98438 23.074 10.4881 22.5703 11.1094 22.5703H13.0781C13.6994 22.5703 14.2031 23.074 14.2031 23.6953V25.6641C14.2031 26.2854 13.6994 26.7891 13.0781 26.7891H11.1094C10.4881 26.7891 9.98438 26.2854 9.98438 25.6641V23.6953Z" fill="#74838F"/>
<path d="M15.8906 18.3516C15.8906 17.7302 16.3943 17.2266 17.0156 17.2266H18.9844C19.6057 17.2266 20.1094 17.7302 20.1094 18.3516V20.3203C20.1094 20.9416 19.6057 21.4453 18.9844 21.4453H17.0156C16.3943 21.4453 15.8906 20.9416 15.8906 20.3203V18.3516Z" fill="#74838F"/>
<path d="M15.8906 23.6953C15.8906 23.074 16.3943 22.5703 17.0156 22.5703H18.9844C19.6057 22.5703 20.1094 23.074 20.1094 23.6953V25.6641C20.1094 26.2854 19.6057 26.7891 18.9844 26.7891H17.0156C16.3943 26.7891 15.8906 26.2854 15.8906 25.6641V23.6953Z" fill="#74838F"/>
<path d="M21.7969 18.3516C21.7969 17.7302 22.3006 17.2266 22.9219 17.2266H24.8906C25.5119 17.2266 26.0156 17.7302 26.0156 18.3516V25.6641C26.0156 26.2854 25.5119 26.7891 24.8906 26.7891H22.9219C22.3006 26.7891 21.7969 26.2854 21.7969 25.6641V18.3516Z" fill="#74838F"/>
</svg>
