<svg width="36" height="36" viewBox="0 0 36 36" fill="none" xmlns="http://www.w3.org/2000/svg">
<path d="M16.8755 13.3369C15.249 12.8529 14.063 11.3462 14.063 9.5625C14.063 7.38788 15.8259 5.625 18.0005 5.625C20.1751 5.625 21.938 7.38788 21.938 9.5625C21.938 11.3462 20.7519 12.8529 19.1255 13.3369V16.5767L25.8759 20.474C27.1081 19.3011 29.0108 19.0242 30.5589 19.918C32.4422 21.0053 33.0874 23.4134 32.0001 25.2967C30.9128 27.18 28.5047 27.8252 26.6214 26.7379C25.08 25.848 24.3679 24.0733 24.7563 22.4257L19.1255 19.1748V22.6631C20.7519 23.1471 21.938 24.6538 21.938 26.4375C21.938 28.6121 20.1751 30.375 18.0005 30.375C15.8259 30.375 14.063 28.6121 14.063 26.4375C14.063 24.6538 15.249 23.1471 16.8755 22.6631V19.1793L11.2524 22.4257C11.6408 24.0733 10.9288 25.848 9.38738 26.7379C7.5041 27.8252 5.09596 27.18 4.00865 25.2967C2.92134 23.4134 3.5666 21.0053 5.44988 19.918C6.99796 19.0242 8.90069 19.3011 10.1329 20.474L16.8755 16.5812V13.3369Z" fill="#74838F"/>
</svg>
