<svg width="36" height="36" viewBox="0 0 36 36" fill="none" xmlns="http://www.w3.org/2000/svg">
<path d="M7.3125 27.2766H6.13593C5.38372 27.2766 5.11094 27.1982 4.83594 27.0512C4.56094 26.9041 4.34512 26.6883 4.19805 26.4133C4.05098 26.1383 3.97266 25.8655 3.97266 25.1133V21.0023C3.97266 20.2501 4.05098 19.9773 4.19805 19.7023C4.34512 19.4273 4.56094 19.2115 4.83594 19.0644C5.11094 18.9174 5.38372 18.839 6.13593 18.839H7.3125V4.40857C7.3125 3.65635 7.39082 3.38358 7.53789 3.10858C7.68496 2.83358 7.90079 2.61776 8.17579 2.47069C8.45079 2.32361 8.72356 2.24529 9.47578 2.24529H24.9393C25.2921 2.22061 25.6533 2.34314 25.9231 2.61288L31.6904 8.38022C31.9379 8.6277 32.0615 8.95218 32.0611 9.27654L32.0625 31.582C32.0625 32.3342 31.9842 32.607 31.8371 32.882C31.69 33.157 31.4742 33.3728 31.1992 33.5199C30.9242 33.667 30.6514 33.7453 29.8992 33.7453H9.47578C8.72356 33.7453 8.45079 33.667 8.17579 33.5199C7.90079 33.3728 7.68496 33.157 7.53789 32.882C7.39082 32.607 7.3125 32.3342 7.3125 31.582V27.2766ZM9.5625 18.839H25.4344C26.1866 18.839 26.4594 18.9174 26.7344 19.0644C27.0094 19.2115 27.2252 19.4273 27.3723 19.7023C27.5193 19.9773 27.5977 20.2501 27.5977 21.0023V25.1133C27.5977 25.8655 27.5193 26.1383 27.3723 26.4133C27.2252 26.6883 27.0094 26.9041 26.7344 27.0512C26.4594 27.1982 26.1866 27.2766 25.4344 27.2766H9.5625V31.4953H29.8125V10.082L24.2258 4.49529H9.5625V18.839ZM8.63862 20.7796V23.5729C8.63862 23.8489 8.60206 24.0451 8.52893 24.1615C8.4558 24.2779 8.34096 24.3361 8.1844 24.3361C8.08553 24.3361 8.00931 24.3165 7.95575 24.2773C7.87747 24.2176 7.82185 24.1393 7.78889 24.0425C7.75594 23.9457 7.73843 23.7974 7.73637 23.5976L6.39844 23.7799C6.42316 24.1301 6.50401 24.4241 6.641 24.662C6.77798 24.9 6.97213 25.0807 7.22344 25.2043C7.47476 25.3279 7.82906 25.3897 8.28637 25.3897C8.71896 25.3897 9.07378 25.296 9.35084 25.1085C9.6279 24.9211 9.81227 24.6924 9.90393 24.4226C9.9956 24.1527 10.0414 23.7593 10.0414 23.2422V20.7796H8.63862ZM10.7305 23.8108C10.7696 24.2681 10.9375 24.645 11.2341 24.9417C11.5308 25.2383 12.0643 25.3866 12.8347 25.3866C13.2735 25.3866 13.6371 25.3233 13.9254 25.1966C14.2138 25.0699 14.4384 24.884 14.599 24.6389C14.7597 24.3937 14.8401 24.1259 14.8401 23.8355C14.8401 23.5883 14.7798 23.3648 14.6593 23.165C14.5388 22.9652 14.3462 22.7978 14.0815 22.6629C13.8168 22.5279 13.3785 22.3946 12.7667 22.2627C12.5195 22.2112 12.363 22.1556 12.2971 22.0959C12.2291 22.0382 12.1951 21.9733 12.1951 21.9012C12.1951 21.8023 12.2363 21.7184 12.3187 21.6494C12.4011 21.5804 12.5237 21.5459 12.6864 21.5459C12.8841 21.5459 13.0392 21.5922 13.1514 21.6849C13.2637 21.7776 13.3373 21.9259 13.3724 22.1299L14.6917 22.0526C14.6341 21.583 14.4533 21.2405 14.1495 21.0252C13.8456 20.81 13.4043 20.7023 12.8254 20.7023C12.3537 20.7023 11.9824 20.7616 11.7115 20.88C11.4406 20.9984 11.2377 21.1612 11.1028 21.3682C10.9679 21.5752 10.9004 21.7951 10.9004 22.0279C10.9004 22.3822 11.0323 22.6737 11.2959 22.9023C11.5575 23.131 11.9953 23.3143 12.6091 23.4523C12.9841 23.5347 13.223 23.6223 13.326 23.715C13.429 23.8077 13.4805 23.9127 13.4805 24.0302C13.4805 24.1538 13.4264 24.2624 13.3183 24.3561C13.2101 24.4499 13.0562 24.4967 12.8563 24.4967C12.5885 24.4967 12.3826 24.4051 12.2384 24.2217C12.1498 24.1084 12.0911 23.9436 12.0622 23.7273L10.7305 23.8108ZM15.3684 23.0476C15.3684 23.577 15.4725 24.0178 15.6805 24.37C15.8886 24.7223 16.16 24.9798 16.4947 25.1425C16.8294 25.3053 17.2522 25.3866 17.7631 25.3866C18.2657 25.3866 18.6854 25.2924 19.0222 25.1039C19.359 24.9154 19.6165 24.6517 19.7947 24.3129C19.9729 23.974 20.062 23.5399 20.062 23.0105C20.062 22.2813 19.8581 21.7143 19.4502 21.3095C19.0423 20.9047 18.4614 20.7023 17.7075 20.7023C16.9721 20.7023 16.3984 20.9083 15.9864 21.3203C15.5744 21.7323 15.3684 22.308 15.3684 23.0476ZM16.7682 23.0537C16.7682 22.5923 16.8536 22.2617 17.0246 22.0619C17.1956 21.8621 17.4222 21.7622 17.7044 21.7622C17.999 21.7622 18.2323 21.8605 18.4043 22.0573C18.5763 22.254 18.6623 22.5655 18.6623 22.9919C18.6623 23.4987 18.5799 23.8499 18.4151 24.0456C18.2503 24.2413 18.0175 24.3391 17.7168 24.3391C17.4242 24.3391 17.193 24.2392 17.0231 24.0394C16.8531 23.8396 16.7682 23.5111 16.7682 23.0537ZM20.8252 20.7796V25.3094H22.1415V22.822L23.8379 25.3094H25.1572V20.7796H23.8379V23.2855L22.1322 20.7796H20.8252Z" fill="#74838F"/>
</svg>
