<svg width="36" height="36" viewBox="0 0 36 36" fill="none" xmlns="http://www.w3.org/2000/svg">
<path d="M7.3125 27.2766H6.13593C5.38372 27.2766 5.11094 27.1982 4.83594 27.0512C4.56094 26.9041 4.34512 26.6883 4.19805 26.4133C4.05098 26.1383 3.97266 25.8655 3.97266 25.1133V21.0023C3.97266 20.2501 4.05098 19.9773 4.19805 19.7023C4.34512 19.4273 4.56094 19.2115 4.83594 19.0644C5.11094 18.9174 5.38372 18.839 6.13593 18.839H7.3125V4.40857C7.3125 3.65635 7.39082 3.38358 7.53789 3.10858C7.68496 2.83358 7.90079 2.61776 8.17579 2.47069C8.45079 2.32361 8.72356 2.24529 9.47578 2.24529H24.9393C25.2921 2.22061 25.6533 2.34314 25.9231 2.61288L31.6904 8.38022C31.9379 8.6277 32.0615 8.95218 32.0611 9.27654L32.0625 31.582C32.0625 32.3342 31.9842 32.607 31.8371 32.882C31.69 33.157 31.4742 33.3728 31.1992 33.5199C30.9242 33.667 30.6514 33.7453 29.8992 33.7453H9.47578C8.72356 33.7453 8.45079 33.667 8.17579 33.5199C7.90079 33.3728 7.68496 33.157 7.53789 32.882C7.39082 32.607 7.3125 32.3342 7.3125 31.582V27.2766ZM9.5625 18.839H25.4344C26.1866 18.839 26.4594 18.9174 26.7344 19.0644C27.0094 19.2115 27.2252 19.4273 27.3723 19.7023C27.5193 19.9773 27.5977 20.2501 27.5977 21.0023V25.1133C27.5977 25.8655 27.5193 26.1383 27.3723 26.4133C27.2252 26.6883 27.0094 26.9041 26.7344 27.0512C26.4594 27.1982 26.1866 27.2766 25.4344 27.2766H9.5625V31.4953H29.8125V10.082L24.2258 4.49529H9.5625V18.839ZM7.9964 20.5559V25.5891H9.55852V23.7214H10.41C11.0371 23.7214 11.5034 23.5783 11.809 23.2922C12.1146 23.0061 12.2673 22.609 12.2673 22.1009C12.2673 21.6065 12.1271 21.2254 11.8468 20.9576C11.5664 20.6898 11.1447 20.5559 10.5816 20.5559H7.9964ZM9.55852 22.7017V21.579H10.0014C10.2921 21.579 10.4901 21.634 10.5954 21.7438C10.7006 21.8537 10.7533 21.9876 10.7533 22.1455C10.7533 22.308 10.6926 22.4414 10.5713 22.5455C10.45 22.6496 10.2394 22.7017 9.93961 22.7017H9.55852ZM13.2319 20.5559V25.5891H14.6945V22.8253L16.5793 25.5891H18.0453V20.5559H16.5793V23.3403L14.6842 20.5559H13.2319ZM21.7496 23.766H22.7899V24.2398C22.5862 24.3611 22.4054 24.4469 22.2475 24.4973C22.0895 24.5476 21.9236 24.5728 21.7496 24.5728C21.3834 24.5728 21.0979 24.4561 20.893 24.2226C20.6882 23.9892 20.5858 23.6001 20.5858 23.0553C20.5858 22.5426 20.687 22.1678 20.8896 21.9309C21.0922 21.6941 21.364 21.5756 21.705 21.5756C21.9339 21.5756 22.1221 21.626 22.2698 21.7267C22.4174 21.8274 22.5221 21.9727 22.5839 22.1627L24.0842 21.8949C23.9927 21.5699 23.8559 21.3015 23.674 21.0898C23.492 20.8781 23.2631 20.7219 22.9873 20.6212C22.7115 20.5205 22.2955 20.4701 21.7393 20.4701C21.1625 20.4701 20.7036 20.5514 20.3626 20.7139C19.9254 20.9244 19.5936 21.2329 19.367 21.6391C19.1404 22.0454 19.0271 22.5232 19.0271 23.0725C19.0271 23.5943 19.1307 24.0567 19.3378 24.4595C19.5449 24.8624 19.8368 25.1656 20.2133 25.3693C20.5898 25.573 21.0767 25.6749 21.6741 25.6749C22.1593 25.6749 22.5788 25.6182 22.9324 25.5049C23.286 25.3916 23.6928 25.1782 24.1529 24.8646V22.7189H21.7496V23.766Z" fill="#74838F"/>
</svg>
