<svg width="36" height="36" viewBox="0 0 36 36" fill="none" xmlns="http://www.w3.org/2000/svg">
<path d="M22.4564 19.0794L22.4058 19.1301V30.8333C22.4058 31.496 21.8727 32.0295 21.2104 32.0295C20.5487 32.0295 20.015 31.4946 20.015 30.8333V18.6341C20.015 18.3146 20.1387 18.0098 20.3627 17.7879L20.6843 17.4662C21.1713 18.1054 21.772 18.6532 22.4564 19.0794ZM28.1647 3.9375C30.3151 3.9375 32.0625 5.68824 32.0625 7.84242C32.0625 8.56413 31.863 9.26296 31.4926 9.87048C31.0129 9.13133 30.3894 8.49418 29.6617 7.99851C29.6669 7.94706 29.6696 7.89493 29.6696 7.84242C29.6696 7.00894 28.9939 6.33207 28.1647 6.33207H7.83941C7.00613 6.33207 6.33039 7.00894 6.33039 7.84242C6.33039 8.2291 6.47805 8.59872 6.74487 8.88222C6.75722 8.8941 6.76744 8.90696 6.77635 8.9209C6.78248 8.93047 6.78616 8.93727 6.79238 8.94951L6.79322 8.95116L15.3593 17.5199C15.5829 17.7437 15.7091 18.0479 15.7091 18.3661V26.9681C15.7091 27.6309 15.1739 28.1664 14.5116 28.1664C13.8499 28.1664 13.3141 27.6295 13.3141 26.9681V18.8621L5.01709 10.5605C4.98165 10.525 4.96151 10.4947 4.92877 10.4364L4.92701 10.4333C4.91442 10.4109 4.90784 10.3997 4.90138 10.3902C4.27988 9.67167 3.9375 8.77555 3.9375 7.84242C3.9375 5.68828 5.68688 3.9375 7.83941 3.9375H28.1647Z" fill="#74838F"/>
<path d="M25.9453 8.26172C28.8189 8.26172 31.1484 10.5912 31.1484 13.4648C31.1484 16.3385 28.8189 18.668 25.9453 18.668C23.0717 18.668 20.7422 16.3385 20.7422 13.4648C20.7422 10.5912 23.0717 8.26172 25.9453 8.26172ZM24.9621 15.1146C25.0498 15.2024 25.1644 15.2469 25.2793 15.2483H25.2905L25.3016 15.248C25.4128 15.244 25.5228 15.1995 25.6077 15.1146L28.2471 12.4752C28.4254 12.297 28.4254 12.0079 28.2471 11.8297L28.2357 11.8182C28.0574 11.64 27.7684 11.64 27.5901 11.8182L25.2849 14.1234L24.2937 13.1322C24.1183 12.9568 23.8355 12.954 23.6567 13.1239L23.6481 13.1322L23.6367 13.1437C23.4584 13.3219 23.4584 13.6109 23.6367 13.7892L24.9621 15.1146Z" fill="#74838F"/>
</svg>
