<svg width="36" height="36" viewBox="0 0 36 36" fill="none" xmlns="http://www.w3.org/2000/svg">
<path d="M31.1731 4.14914L31.1992 4.16287C31.4742 4.30994 31.69 4.52576 31.8371 4.80076L31.8508 4.82682L31.8597 4.84423L31.8728 4.87047L31.8812 4.88809L31.8936 4.91476L31.9016 4.93275L31.9094 4.95094L31.9207 4.97864L31.9281 4.99744L31.9352 5.01652L31.9422 5.03592L31.949 5.05567L31.9555 5.07579L31.9619 5.09631C31.963 5.09976 31.964 5.10323 31.9651 5.10672L31.9712 5.12789L31.9771 5.14952L31.9828 5.17164L31.9883 5.19429C31.9892 5.19811 31.9901 5.20195 31.991 5.20581L31.9962 5.22929L32.0013 5.25335L32.0061 5.27803L32.0108 5.30335L32.0152 5.32933L32.0195 5.35601L32.0235 5.38342L32.0274 5.41157L32.0311 5.4405L32.0362 5.4854L32.0393 5.51639L32.0423 5.54825L32.0464 5.59772L32.0488 5.63188L32.0511 5.66699L32.0532 5.7031L32.055 5.74023L32.0567 5.7784L32.0581 5.81765L32.0599 5.87858L32.0608 5.92063L32.0615 5.96384L32.0621 6.00825L32.0625 6.05388V24.8603L32.0621 24.9292L32.0615 24.9736L32.0604 25.038L32.0593 25.0795L32.0581 25.1198L32.0567 25.159L32.055 25.1972L32.0521 25.2525L32.0488 25.3056L32.0464 25.3397L32.0437 25.3729L32.0393 25.4211L32.0362 25.452L32.0328 25.4822L32.0293 25.5115L32.0255 25.5401L32.0215 25.5678L32.0174 25.5949L32.013 25.6212C32.0123 25.6255 32.0115 25.6298 32.0108 25.6341L32.0061 25.6594L32.0013 25.6841L31.9962 25.7082L31.991 25.7316L31.9856 25.7546L31.98 25.7769L31.9741 25.7988L31.9681 25.8202C31.9671 25.8237 31.9661 25.8272 31.9651 25.8307L31.9555 25.8617L31.949 25.8818L31.9422 25.9015L31.9352 25.9209L31.9281 25.94L31.9207 25.9588L31.9132 25.9773L31.9016 26.0047L31.8936 26.0227L31.8812 26.0494L31.8685 26.0757L31.8597 26.0932L31.8508 26.1106L31.8371 26.1367C31.69 26.4117 31.4742 26.6275 31.1992 26.7746L31.1731 26.7883L31.1557 26.7972L31.1295 26.8103L31.1119 26.8187L31.0852 26.8311L31.0672 26.8391L31.049 26.8469L31.0213 26.8582L31.0025 26.8656L30.9834 26.8727L30.964 26.8797L30.9443 26.8865L30.9242 26.893L30.9036 26.8994C30.9002 26.9005 30.8967 26.9015 30.8932 26.9026L30.8721 26.9087L30.8504 26.9146L30.8283 26.9203L30.8057 26.9258C30.8018 26.9267 30.798 26.9276 30.7941 26.9285L30.7707 26.9337L30.7466 26.9388L30.7219 26.9436L30.6966 26.9483L30.6706 26.9527L30.6439 26.957L30.6165 26.961L30.5884 26.9649L30.5595 26.9686L30.5145 26.9737L30.4836 26.9768L30.4517 26.9798L30.4022 26.9839L30.3681 26.9863L30.333 26.9886L30.2968 26.9907L30.2597 26.9925L30.2215 26.9942L30.1823 26.9956L30.1214 26.9974L30.0793 26.9983L30.0361 26.999L29.9917 26.9996L29.9461 26.9999L29.8992 27H22.9424L18.8263 31.6306C18.4135 32.095 17.7024 32.1368 17.238 31.7241C17.2051 31.6948 17.1739 31.6636 17.1446 31.6306L13.0285 27L6.07716 27L6.00825 26.9996L5.96384 26.999L5.89946 26.9979L5.85799 26.9968L5.81765 26.9956L5.7784 26.9942L5.74023 26.9925L5.68492 26.9897L5.63188 26.9863L5.59772 26.9839L5.56451 26.9812L5.51639 26.9768L5.4854 26.9737L5.45526 26.9703L5.42593 26.9668L5.3974 26.963L5.36962 26.959L5.34258 26.9549L5.31625 26.9505C5.31192 26.9498 5.30762 26.949 5.30334 26.9483L5.27803 26.9436L5.25335 26.9388L5.22929 26.9337L5.20581 26.9285L5.1829 26.9231L5.16052 26.9175L5.13864 26.9116L5.11725 26.9056C5.11372 26.9046 5.11021 26.9036 5.10672 26.9026L5.07579 26.893L5.05567 26.8865L5.03592 26.8797L5.01652 26.8727L4.99744 26.8656L4.97864 26.8582L4.96011 26.8507L4.93275 26.8391L4.91476 26.8311L4.88809 26.8187L4.86171 26.806L4.84423 26.7972L4.82682 26.7883L4.80076 26.7746C4.52576 26.6275 4.30994 26.4117 4.16287 26.1367L4.14914 26.1106L4.14022 26.0932L4.12718 26.067L4.11872 26.0494L4.10638 26.0227L4.09838 26.0047L4.09057 25.9865L4.07921 25.9588L4.07187 25.94L4.06472 25.9209L4.05776 25.9015L4.05099 25.8818L4.04441 25.8617L4.03801 25.8411C4.03697 25.8377 4.03592 25.8342 4.03489 25.8307L4.02879 25.8096L4.02288 25.7879L4.01716 25.7658L4.01163 25.7432C4.01073 25.7393 4.00983 25.7355 4.00894 25.7316L4.00371 25.7082L3.99867 25.6841L3.99383 25.6594L3.98918 25.6341L3.98472 25.6081L3.98047 25.5814L3.97641 25.554L3.97255 25.5259L3.96889 25.497L3.96377 25.452L3.9606 25.4211L3.95764 25.3892L3.95357 25.3397L3.95111 25.3056L3.94885 25.2705L3.9468 25.2343L3.94494 25.1972L3.94329 25.159L3.94185 25.1198L3.94007 25.0589L3.93913 25.0168L3.93841 24.9736L3.93789 24.9292L3.9375 24.8836C3.9375 24.8759 3.9375 24.8681 3.9375 24.8603V6.07716L3.93789 6.00825L3.93841 5.96384L3.93957 5.89946L3.94061 5.85799L3.94185 5.81765L3.94329 5.7784L3.94494 5.74023L3.9478 5.68492L3.95111 5.63188L3.95357 5.59772L3.95623 5.56451L3.9606 5.51639L3.96377 5.4854L3.96713 5.45526L3.97069 5.42593L3.97446 5.3974L3.97842 5.36962L3.98257 5.34258L3.98693 5.31625C3.98767 5.31192 3.98842 5.30762 3.98918 5.30335L3.99383 5.27803L3.99867 5.25335L4.00371 5.22929L4.00894 5.20581L4.01437 5.1829L4.01999 5.16052L4.02581 5.13864L4.03182 5.11725C4.03283 5.11372 4.03386 5.11021 4.03489 5.10672L4.04441 5.07579L4.05099 5.05567L4.05776 5.03592L4.06472 5.01652L4.07187 4.99744L4.07921 4.97864L4.08674 4.96011L4.09838 4.93275L4.10638 4.91476L4.11872 4.88809L4.13148 4.86171L4.14022 4.84423L4.14914 4.82682L4.16287 4.80076C4.30994 4.52576 4.52576 4.30994 4.80076 4.16287L4.82682 4.14914L4.84423 4.14022L4.87047 4.12718L4.88809 4.11872L4.91476 4.10638L4.93275 4.09838L4.95094 4.09057L4.97864 4.07921L4.99744 4.07187L5.01652 4.06472L5.03592 4.05776L5.05567 4.05099L5.07579 4.04441L5.09631 4.03801C5.09976 4.03697 5.10323 4.03592 5.10672 4.03489L5.12789 4.02879L5.14952 4.02288L5.17164 4.01716L5.19429 4.01163C5.19811 4.01073 5.20195 4.00983 5.20581 4.00894L5.22929 4.00371L5.25335 3.99867L5.27803 3.99383L5.30334 3.98918L5.32933 3.98472L5.35601 3.98047L5.38342 3.97641L5.41157 3.97255L5.4405 3.96889L5.4854 3.96377L5.51639 3.9606L5.54825 3.95764L5.59772 3.95357L5.63188 3.95111L5.66699 3.94885L5.7031 3.9468L5.74023 3.94494L5.7784 3.94329L5.81765 3.94185L5.87858 3.94007L5.92063 3.93913L5.96384 3.93841L6.00825 3.93789L6.05388 3.9375C6.06158 3.9375 6.06934 3.9375 6.07716 3.9375H29.9228L29.9917 3.93789L30.0361 3.93841L30.1005 3.93957L30.142 3.94061L30.1823 3.94185L30.2215 3.94329L30.2597 3.94494L30.315 3.9478L30.3681 3.95111L30.4022 3.95357L30.4354 3.95623L30.4836 3.9606L30.5145 3.96377L30.5447 3.96713L30.574 3.97069L30.6026 3.97446L30.6303 3.97842L30.6574 3.98257L30.6837 3.98693C30.688 3.98767 30.6923 3.98842 30.6966 3.98918L30.7219 3.99383L30.7466 3.99867L30.7707 4.00371L30.7941 4.00894L30.8171 4.01437L30.8394 4.01999L30.8613 4.02581L30.8827 4.03182C30.8862 4.03283 30.8897 4.03386 30.8932 4.03489L30.9242 4.04441L30.9443 4.05099L30.964 4.05776L30.9834 4.06472L31.0025 4.07187L31.0213 4.07921L31.0398 4.08674L31.0672 4.09838L31.0852 4.10638L31.1119 4.11872L31.1382 4.13148L31.1557 4.14022L31.1731 4.14914ZM29.5312 6.46869H6.46869V24.4687H14.1652L17.9854 28.7665L21.8057 24.4687H29.5312V6.46869Z" fill="#74838F"/>
<path fill-rule="evenodd" clip-rule="evenodd" d="M18.2094 8.5781C19.4468 8.5781 20.4557 8.90074 21.2172 9.58396C21.9786 10.2482 22.3593 11.1592 22.3593 12.3169C22.3593 13.2658 22.1119 14.0439 21.655 14.6512C21.4837 14.841 20.9316 15.3535 20.0179 16.1506C19.6752 16.4163 19.4277 16.7389 19.2564 17.0805C19.066 17.4601 18.9708 17.8776 18.9708 18.3331V18.5988H16.7816V18.3331C16.7816 17.6119 16.8959 16.9856 17.1624 16.4732C17.4098 15.9608 18.1523 15.1637 19.3896 14.0629L19.6181 13.7972C19.9607 13.3797 20.1321 12.9242 20.1321 12.4497C20.1321 11.8234 19.9417 11.33 19.599 10.9694C19.2374 10.6088 18.7234 10.438 18.0761 10.438C17.2575 10.438 16.6674 10.6847 16.2867 11.1971C15.9631 11.6337 15.8108 12.2599 15.8108 13.076H13.6406C13.6406 11.6716 14.0404 10.5708 14.878 9.77375C15.6965 8.97665 16.8007 8.5781 18.2094 8.5781ZM17.8667 19.5287C18.2855 19.5287 18.6472 19.6616 18.9328 19.9273C19.1993 20.193 19.3516 20.5346 19.3516 20.9521C19.3516 21.3697 19.1993 21.7303 18.9328 21.996C18.6282 22.2617 18.2855 22.3945 17.8667 22.3945C17.4479 22.3945 17.1053 22.2427 16.8387 21.977C16.5342 21.7113 16.4009 21.3697 16.4009 20.9521C16.4009 20.5346 16.5342 20.193 16.8387 19.9273C17.1053 19.6616 17.4479 19.5287 17.8667 19.5287Z" fill="#74838F"/>
</svg>
