<svg width="36" height="36" viewBox="0 0 36 36" fill="none" xmlns="http://www.w3.org/2000/svg">
<path fill-rule="evenodd" clip-rule="evenodd" d="M16.1114 21.5974C15.7399 21.5974 15.3689 21.4538 15.0854 21.1661C12.4308 18.4727 12.4308 14.0901 15.0854 11.3967L20.4429 5.96096C21.7287 4.65638 23.4386 3.9375 25.257 3.9375C27.0754 3.9375 28.7854 4.65593 30.0716 5.96051C32.7262 8.65393 32.7262 13.0365 30.0716 15.7299L27.6228 18.2145C27.0562 18.7894 26.1374 18.7894 25.5709 18.2145C25.0043 17.6397 25.0043 16.7075 25.5709 16.1326L28.0197 13.648C29.543 12.1025 29.543 9.58797 28.0197 8.04286C27.2817 7.29408 26.3008 6.88187 25.2575 6.88187C24.2141 6.88187 23.2328 7.29408 22.4953 8.04286L17.1378 13.4786C15.6145 15.0242 15.6145 17.5387 17.1378 19.0838C17.7043 19.6586 17.7043 20.5909 17.1378 21.1657C16.8547 21.4533 16.4828 21.5974 16.1114 21.5974Z" fill="#74838F"/>
<path fill-rule="evenodd" clip-rule="evenodd" d="M10.7427 32.062C8.92428 32.062 7.21432 31.3436 5.92851 30.039C3.27383 27.3456 3.27383 22.963 5.92851 20.2695L8.37736 17.7849C8.94392 17.2101 9.86275 17.2101 10.4293 17.7849C10.9959 18.3598 10.9959 19.292 10.4293 19.8668L7.98045 22.3514C6.45712 23.897 6.45712 26.4115 7.98045 27.9567C8.71801 28.7054 9.69934 29.1177 10.7427 29.1177C11.7861 29.1177 12.7674 28.7054 13.505 27.9567L18.8626 22.5209C20.3859 20.9753 20.3859 18.4608 18.8626 16.9157C18.296 16.3408 18.296 15.4086 18.8626 14.8337C19.4291 14.2589 20.348 14.2589 20.9145 14.8337C23.5692 17.5272 23.5692 21.9098 20.9145 24.6032L15.5569 30.039C14.2707 31.3436 12.5616 32.062 10.7427 32.062Z" fill="#74838F"/>
</svg>
