<svg width="36" height="36" viewBox="0 0 36 36" fill="none" xmlns="http://www.w3.org/2000/svg">
<path d="M21.314 25.7174L19.2642 27.7672V19.2642H27.7906L25.7277 21.3271C25.2402 21.8146 25.2402 22.605 25.7277 23.0925C26.2152 23.5799 27.0056 23.5799 27.4931 23.0925L31.6939 18.8916C32.1814 18.4041 32.1814 17.6137 31.6939 17.1262C31.6775 17.1098 31.6606 17.0938 31.6435 17.0784L27.4828 12.9178C26.9953 12.4303 26.2049 12.4303 25.7174 12.9178C25.23 13.4053 25.23 14.1956 25.7174 14.6831L27.7673 16.7329H19.2642V8.2064L21.3271 10.2693C21.8145 10.7568 22.6049 10.7568 23.0924 10.2693C23.5799 9.78183 23.5799 8.99146 23.0924 8.50398L18.8916 4.30311C18.4041 3.81563 17.6137 3.81563 17.1262 4.30311C17.1097 4.31961 17.0938 4.33644 17.0784 4.35361L12.9178 8.51426C12.4303 9.00175 12.4303 9.79212 12.9178 10.2796C13.4052 10.7671 14.1956 10.7671 14.6831 10.2796L16.7329 8.22979V16.7329H8.20641L10.2693 14.67C10.7568 14.1825 10.7568 13.3922 10.2693 12.9047C9.78184 12.4172 8.99147 12.4172 8.50398 12.9047L4.30312 17.1055C3.81563 17.593 3.81563 18.3834 4.30312 18.8709C4.31961 18.8874 4.33644 18.9033 4.3536 18.9187L8.51427 23.0794C9.00176 23.5668 9.79213 23.5668 10.2796 23.0794C10.7671 22.5919 10.7671 21.8015 10.2796 21.314L8.2298 19.2642H16.7329V27.7906L14.67 25.7277C14.1825 25.2402 13.3921 25.2402 12.9047 25.7277C12.4172 26.2152 12.4172 27.0056 12.9047 27.493L17.1055 31.6939C17.593 32.1814 18.3834 32.1814 18.8709 31.6939C18.8873 31.6774 18.9033 31.6606 18.9187 31.6434L23.0793 27.4828C23.5668 26.9953 23.5668 26.2049 23.0793 25.7174C22.5918 25.2299 21.8014 25.2299 21.314 25.7174Z" fill="#74838F"/>
</svg>
