<svg width="36" height="36" viewBox="0 0 36 36" fill="none" xmlns="http://www.w3.org/2000/svg">
<path d="M31.1992 10.2098C31.4742 10.3568 31.69 10.5727 31.8371 10.8477C31.9842 11.1227 32.0625 11.3954 32.0625 12.1477V23.8523C32.0625 24.6046 31.9842 24.8773 31.8371 25.1523C31.69 25.4273 31.4742 25.6432 31.1992 25.7902C30.9242 25.9373 30.6514 26.0156 29.8992 26.0156H6.10078C5.34856 26.0156 5.07579 25.9373 4.80079 25.7902C4.52579 25.6432 4.30996 25.4273 4.16289 25.1523C4.01737 24.8802 3.93916 24.6103 3.93753 23.8759L3.9375 12.1477C3.9375 11.3954 4.01582 11.1227 4.16289 10.8477C4.30996 10.5727 4.52579 10.3568 4.80079 10.2098C5.07289 10.0642 5.34282 9.98603 6.07718 9.9844L29.8992 9.98438C30.6514 9.98438 30.9242 10.0627 31.1992 10.2098ZM29.5312 12.5156H6.46875V23.4844H29.5312V12.5156Z" fill="#74838F"/>
<path fill-rule="evenodd" clip-rule="evenodd" d="M32.0625 27.9844V30.5156H11.3906V32.0625H8.85938L8.8594 30.1241C8.86103 29.3897 8.93924 29.1198 9.08477 28.8477C9.23184 28.5727 9.44766 28.3568 9.72266 28.2098C9.99477 28.0642 10.2647 27.986 10.9991 27.9844L32.0625 27.9844ZM11.3906 3.9375V5.48438H32.0625V8.01562H11.0227C10.2704 8.01562 9.99766 7.9373 9.72266 7.79023C9.44766 7.64316 9.23184 7.42734 9.08477 7.15234C8.93924 6.88023 8.86103 6.61031 8.8594 5.87594L8.85938 3.9375H11.3906Z" fill="#74838F"/>
</svg>
