<svg width="36" height="36" viewBox="0 0 36 36" fill="none" xmlns="http://www.w3.org/2000/svg">
<path d="M29.3112 10.2425C26.7936 6.44296 22.4794 3.9375 17.5801 3.9375C9.81357 3.9375 3.51758 10.2335 3.51758 18L3.51762 18.0352H5.76763L5.76758 18C5.76758 11.4761 11.0562 6.1875 17.5801 6.1875C21.6186 6.1875 25.1838 8.21419 27.3141 11.306L25.7873 10.8969C25.1122 10.716 24.4182 11.1167 24.2373 11.7918C24.0564 12.467 24.457 13.161 25.1322 13.3419L29.4789 14.5066C30.154 14.6875 30.848 14.2868 31.0289 13.6117L32.1936 9.26498C32.3745 8.58981 31.9739 7.89582 31.2987 7.71491C30.6235 7.534 29.9295 7.93468 29.7486 8.60984L29.3112 10.2425Z" fill="#74838F"/>
<path d="M8.72114 24.694L10.2479 25.1031C10.9231 25.284 11.6171 24.8833 11.798 24.2082C11.9789 23.533 11.5782 22.839 10.903 22.6581L6.55636 21.4934C5.88119 21.3125 5.1872 21.7132 5.00629 22.3884L3.8416 26.735C3.66069 27.4102 4.06136 28.1042 4.73653 28.2851C5.4117 28.466 6.10569 28.0653 6.2866 27.3902L6.72408 25.7575C9.24168 29.557 13.5558 32.0625 18.4552 32.0625C26.2217 32.0625 32.5177 25.7665 32.5177 18L32.5176 17.9648H30.2676L30.2677 18C30.2677 24.5239 24.979 29.8125 18.4552 29.8125C14.4166 29.8125 10.8514 27.7858 8.72114 24.694Z" fill="#74838F"/>
</svg>
