<svg width="36" height="36" viewBox="0 0 36 36" fill="none" xmlns="http://www.w3.org/2000/svg">
<path fill-rule="evenodd" clip-rule="evenodd" d="M15.0854 11.3967L20.4429 5.96096C21.7287 4.65638 23.4386 3.9375 25.257 3.9375C27.0754 3.9375 28.7853 4.65593 30.0716 5.96051C32.7262 8.65393 32.7262 13.0365 30.0716 15.7299L27.6228 18.2145C27.0562 18.7894 26.1374 18.7894 25.5709 18.2145C25.0043 17.6397 25.0043 16.7075 25.5709 16.1326L28.0197 13.648C29.543 12.1025 29.543 9.58797 28.0197 8.04286C27.2817 7.29408 26.3008 6.88187 25.2575 6.88187C24.2141 6.88187 23.2328 7.29408 22.4952 8.04286L17.1378 13.4786L15.0854 11.3967Z" fill="#74838F"/>
<path fill-rule="evenodd" clip-rule="evenodd" d="M20.9592 24.6161L15.6017 30.0519C14.3159 31.3565 12.606 32.0753 10.7876 32.0753C8.96921 32.0753 7.2593 31.3569 5.97306 30.0523C3.31845 27.3589 3.31845 22.9763 5.97306 20.2829L8.42186 17.7983C8.98841 17.2235 9.90721 17.2235 10.4738 17.7983C11.0403 18.3731 11.0403 19.3054 10.4738 19.8802L8.02496 22.3648C6.50166 23.9104 6.50166 26.4249 8.02496 27.97C8.76295 28.7188 9.74381 29.131 10.7872 29.131C11.8305 29.131 12.8118 28.7188 13.5494 27.97L18.9068 22.5342L20.9592 24.6161Z" fill="#74838F"/>
<path d="M9.37386 7.58399L28.416 26.6262C28.9103 27.1204 28.9103 27.9218 28.416 28.416C27.9218 28.9103 27.1204 28.9103 26.6262 28.416L7.58399 9.37386C7.08974 8.8796 7.08974 8.07825 7.58399 7.58399C8.07825 7.08974 8.8796 7.08974 9.37386 7.58399Z" fill="#74838F"/>
</svg>
